<svg width="77" height="90" viewBox="0 0 77 90" fill="none" xmlns="http://www.w3.org/2000/svg">
<path d="M25.0201 4.89851L25.359 4.8077L25.4536 5.16072C24.8214 5.31511 24.199 5.50715 23.5897 5.73582L23.4574 5.39289C23.9604 5.21776 24.4882 5.04103 25.0201 4.89851ZM21.6309 6.22033L21.7983 6.54375C21.2232 6.84644 20.6715 7.19158 20.1477 7.57628L19.9324 7.28083C20.4725 6.88873 21.0411 6.5374 21.6334 6.22974L21.6309 6.22033ZM18.4178 8.59477L18.6739 8.85406C18.2176 9.31491 17.799 9.81171 17.4223 10.3397L17.1245 10.1319C17.5113 9.58274 17.9435 9.06698 18.4165 8.59006L18.4178 8.59477ZM16.0941 11.8408L16.4173 12.0115C16.1193 12.5889 15.8631 13.1869 15.6507 13.801L15.3059 13.6815C15.5225 13.0465 15.7851 12.4282 16.0916 11.8314L16.0941 11.8408ZM14.7947 15.6145L15.1551 15.6794C15.0387 16.3182 14.9776 16.9658 14.9725 17.6151L14.6084 17.6118C14.6117 16.9403 14.6736 16.2705 14.7934 15.6098L14.7947 15.6145ZM14.7768 19.6149L15.1374 19.5485C15.2055 19.8027 15.242 20.0704 15.3088 20.3199C15.4037 20.6687 15.5176 21.0121 15.65 21.3485C16.0229 21.2749 16.3997 21.2228 16.7786 21.1924L16.8107 21.5571C16.2082 21.6074 15.6111 21.71 15.0263 21.8637L14.9039 21.8965L14.8093 21.5435L14.9364 21.5094L15.2894 21.4148C15.1604 21.0842 15.0497 20.7467 14.958 20.4038C14.8852 20.1509 14.8274 19.8788 14.7756 19.6102L14.7768 19.6149ZM12.9378 22.2972L13.1099 22.6194C12.5428 22.9249 12.0142 23.2969 11.5351 23.7274L11.2905 23.455C11.7913 23.0037 12.3438 22.6135 12.9365 22.2925L12.9378 22.2972ZM18.7882 21.1987C19.4557 21.2551 20.1176 21.3646 20.7678 21.526L20.6756 21.8786C20.0465 21.7227 19.406 21.6177 18.7601 21.5645L18.7882 21.1987ZM16.5888 23.12C16.953 23.6531 17.3756 24.144 17.8487 24.5834L17.6026 24.8512C17.1067 24.3954 16.665 23.884 16.2861 23.3272L16.5888 23.12ZM9.96267 24.9761L10.2605 25.1839C9.89108 25.7152 9.57475 26.2816 9.31611 26.8748L8.98383 26.7267C9.24881 26.1072 9.57547 25.516 9.95889 24.962L9.96267 24.9761ZM22.6535 22.181L22.7776 22.2487C23.3532 22.5331 23.8599 22.9397 24.2622 23.4401L23.968 23.6601C23.5994 23.2022 23.1347 22.8308 22.6069 22.5719L22.4901 22.5124L22.6535 22.181ZM8.31557 28.6009L8.66602 28.7037C8.48283 29.338 8.32695 29.9801 8.20622 30.6027L7.84452 30.5332C7.96744 29.8999 8.12549 29.2471 8.31557 28.6009ZM19.4054 25.705C19.9471 26.0062 20.5194 26.2486 21.1126 26.4281L21.1959 26.4562L21.093 26.8067L21.0051 26.7798C20.3916 26.5892 19.8004 26.3332 19.2416 26.0163L19.4054 25.705ZM24.3229 25.3611L24.6677 25.4806C24.5421 25.8177 24.3366 26.1194 24.0689 26.3598C23.8012 26.6003 23.4793 26.7722 23.1306 26.8611L23.036 26.508C23.3259 26.4322 23.5937 26.2887 23.8174 26.0893C24.0411 25.8899 24.2143 25.6403 24.3229 25.3611ZM7.5716 32.5083L7.93387 32.5424C7.8742 33.1915 7.84847 33.8434 7.85679 34.4952L7.49518 34.5013C7.47974 33.8366 7.50369 33.1715 7.56689 32.5095L7.5716 32.5083ZM7.63036 36.4932L7.996 36.4457C8.07924 37.0925 8.19896 37.7342 8.35458 38.3676L8.00155 38.4622C7.84142 37.8132 7.7175 37.1559 7.63036 36.4932ZM8.92497 40.2327C9.15088 40.8494 9.40883 41.4539 9.69777 42.0436L9.36836 42.2076C9.07652 41.61 8.81493 40.9982 8.58455 40.3744L8.92497 40.2327ZM10.6459 43.7369C10.9837 44.2821 11.3557 44.8231 11.7593 45.3506L11.4652 45.5707C11.0602 45.0385 10.6703 44.4871 10.3347 43.9313L10.6459 43.7369ZM12.9976 46.8653C13.4276 47.3404 13.8918 47.8113 14.3817 48.2652L14.1297 48.5295C13.6432 48.0696 13.1718 47.5905 12.7393 47.1061L12.9976 46.8653ZM15.8445 49.5633C16.3432 49.9746 16.8688 50.3735 17.4048 50.7546L17.1923 51.0537C16.6504 50.6692 16.1175 50.2621 15.6129 49.8474L15.8445 49.5633ZM19.039 51.8453C19.5935 52.2013 20.1626 52.5179 20.7399 52.8274L20.5693 53.1506C19.98 52.8343 19.3869 52.5038 18.8491 52.1535L19.039 51.8453ZM22.4995 53.708C23.0774 53.982 23.6964 54.2399 24.3009 54.4815L24.1695 54.8194C23.5555 54.5803 22.94 54.3164 22.3454 54.0368L22.4995 53.708Z" fill="#263238"/>
<path d="M27.3767 4.44815C27.7039 4.40265 28.0333 4.37502 28.3635 4.36537L28.3708 4.73169C28.3708 4.73169 28.0092 4.73776 27.423 4.80909L27.3767 4.44815Z" fill="#263238"/>
<path d="M32.3139 3.87785C32.0306 1.93576 27.9024 1.91183 28.2715 4.4565C28.6406 7.00118 32.6009 5.83406 32.3139 3.87785Z" fill="#263238"/>
<path d="M26.4427 2.1107C26.61 1.30408 27.8497 0.865961 29.4029 1.4285C30.4734 1.86882 31.4499 2.50957 32.2799 3.31631C31.2042 3.72812 30.0597 3.93033 28.908 3.91204C27.2194 3.80451 26.2591 2.93177 26.4427 2.1107Z" fill="#EBEBEB"/>
<path d="M32.2651 3.31836C31.4319 3.18344 30.6052 3.01649 29.7797 2.85425C28.9543 2.69201 28.132 2.50371 27.3153 2.29877C28.1485 2.43369 28.9752 2.60063 29.8007 2.76288C30.6261 2.92512 31.4484 3.11342 32.2651 3.31836Z" fill="#263238"/>
<path d="M28.1596 1.66603C28.3812 1.81676 28.5935 1.98055 28.7956 2.15653C28.9948 2.33154 29.1831 2.51865 29.3594 2.7168C29.1379 2.56607 28.9255 2.40228 28.7234 2.2263C28.5233 2.0522 28.335 1.86503 28.1596 1.66603Z" fill="#263238"/>
<path d="M30.1838 2.89239C29.9429 3.02911 29.6948 3.15284 29.4406 3.26306C29.1839 3.3723 28.9215 3.46787 28.6546 3.54935C29.1411 3.27986 29.6534 3.05976 30.1838 2.89239Z" fill="#263238"/>
<path d="M30.5102 2.47389C30.7261 2.63199 30.9046 2.83561 31.0332 3.07031C30.8173 2.9122 30.6387 2.70859 30.5102 2.47389Z" fill="#263238"/>
<path d="M27.1416 7.20448C27.5333 7.93195 28.8417 7.99503 30.168 7.01407C31.0692 6.28433 31.8225 5.38896 32.3873 4.37621C31.2311 4.29334 30.0697 4.43327 28.9662 4.78838C27.4153 5.34522 26.7389 6.45473 27.1416 7.20448Z" fill="#EBEBEB"/>
<path d="M32.387 4.37698C31.6272 4.74202 30.8822 5.14344 30.1406 5.53891C29.399 5.93437 28.6612 6.34395 27.9485 6.77202C28.7036 6.40825 29.4487 6.00683 30.1903 5.61136C30.9319 5.2159 31.6602 4.80884 32.387 4.37698Z" fill="#263238"/>
<path d="M28.9251 7.14002C29.0909 6.93945 29.2453 6.72966 29.3874 6.51166C29.5271 6.2858 29.6549 6.05284 29.7705 5.81372C29.6018 6.01207 29.4474 6.22204 29.3082 6.44207C29.167 6.66707 29.0391 6.90011 28.9251 7.14002Z" fill="#263238"/>
<path d="M30.5225 5.38086C29.9791 5.26046 29.4245 5.19767 28.868 5.19356C29.411 5.31634 29.9658 5.37915 30.5225 5.38086Z" fill="#263238"/>
<path d="M30.9338 5.69367C31.0158 5.58946 31.0853 5.47602 31.1409 5.35566C31.1952 5.233 31.237 5.10517 31.2657 4.97412C31.184 5.08 31.115 5.19501 31.0599 5.31684C31.0001 5.43581 30.9577 5.5627 30.9338 5.69367Z" fill="#263238"/>
<path d="M32.3142 3.8771C32.1752 3.89754 32.0332 3.87633 31.9062 3.81617C31.7792 3.756 31.6729 3.65957 31.6006 3.53904C31.5283 3.4185 31.4934 3.27928 31.5002 3.13891C31.5069 2.99854 31.5551 2.86331 31.6387 2.75029C31.7222 2.63728 31.8373 2.55155 31.9695 2.50389C32.1017 2.45623 32.2451 2.44879 32.3815 2.48251C32.518 2.51624 32.6413 2.58961 32.7361 2.69337C32.8309 2.79714 32.8928 2.92665 32.9141 3.06557C32.9414 3.25261 32.8937 3.44288 32.7813 3.59489C32.669 3.74691 32.5011 3.84834 32.3142 3.8771Z" fill="#455A64"/>
<path d="M32.5207 5.29138C32.4279 5.30497 32.3334 5.30016 32.2425 5.27722C32.1516 5.25428 32.0661 5.21366 31.9909 5.15768C31.9158 5.1017 31.8523 5.03147 31.8043 4.95097C31.7562 4.87048 31.7245 4.78132 31.7109 4.68856C31.6973 4.59581 31.7021 4.50128 31.7251 4.41038C31.748 4.31949 31.7886 4.234 31.8446 4.1588C31.9006 4.08361 31.9708 4.02017 32.0513 3.97212C32.1318 3.92407 32.221 3.89235 32.3137 3.87876C32.501 3.85131 32.6916 3.8994 32.8435 4.01245C32.9953 4.1255 33.0961 4.29425 33.1235 4.48158C33.151 4.6689 33.1029 4.85945 32.9898 5.01132C32.8768 5.16319 32.708 5.26394 32.5207 5.29138Z" fill="#455A64"/>
<path d="M40.8002 85.3723C45.6132 83.4433 47.9512 77.9779 46.0222 73.1649C44.0933 68.3519 38.6278 66.0139 33.8148 67.9428C29.0018 69.8718 26.6638 75.3373 28.5928 80.1503C30.5218 84.9633 35.9872 87.3013 40.8002 85.3723Z" fill="#9558ED"/>
<path d="M3.34375 64.4372L71.1744 89.1719L68.4608 82.0915C66.7886 77.7196 66.748 72.8915 68.3464 68.4921L75.0525 50.0892C76.2432 46.8375 76.7801 43.3826 76.6324 39.9228C76.4848 36.463 75.6554 33.0665 74.1919 29.928C72.7284 26.7895 70.6597 23.9709 68.1043 21.6338C65.5489 19.2967 62.5573 17.4872 59.3009 16.3091C52.7502 13.9312 45.5236 14.25 39.2078 17.1955C32.8919 20.1409 28.003 25.4723 25.6143 32.0191L19.1681 49.6941C17.6716 53.791 14.8457 57.2684 11.1416 59.5714L3.34375 64.4372Z" fill="#9558ED"/>
<path d="M57.1469 9.74896L54.0985 18.1105C53.5164 19.7074 54.339 21.4739 55.9358 22.056L56.8052 22.373C58.4021 22.9551 60.1685 22.1325 60.7507 20.5357L63.799 12.1741C64.3812 10.5772 63.5586 8.81077 61.9617 8.22861L61.0923 7.91167C59.4955 7.32951 57.729 8.15209 57.1469 9.74896Z" fill="#9558ED"/>
<path d="M71.1326 89.2854C71.0806 89.4206 55.9529 84.0349 37.3525 77.2456C18.7521 70.4563 3.70743 64.8418 3.75941 64.6963C3.8114 64.5507 18.9392 69.8948 37.5396 76.7361C56.14 83.5774 71.1846 89.1814 71.1326 89.2854Z" fill="#738096"/>
<g opacity="0.3">
<path d="M28.3901 73.6895C30.1582 76.4687 32.7551 78.6218 35.8137 79.8445C39.0807 81.1232 42.6913 81.2225 46.0236 80.1253L28.3901 73.6895Z" fill="black"/>
</g>
<g opacity="0.2">
<path d="M73.8567 45.4825C74.1649 44.7 74.2825 43.8553 74.1998 43.0184C74.1469 42.6017 73.953 42.2157 73.6504 41.9245C73.3478 41.6332 72.9547 41.4542 72.5363 41.4172C72.0867 41.3516 71.6282 41.4429 71.238 41.6758C70.8479 41.9088 70.55 42.2691 70.3945 42.6961C69.3548 45.5969 66.953 52.0535 65.3935 55.7652C64.1146 58.8844 62.4407 62.0659 59.5399 63.7398C57.2141 64.9336 54.5448 65.2792 51.9916 64.7171C49.4629 64.1434 46.9919 63.3395 44.6097 62.3154C41.574 61.0678 38.3963 60.1983 35.1483 59.7265C34.2857 59.5645 33.3954 59.6363 32.5699 59.9345C32.1672 60.0964 31.8316 60.3904 31.6181 60.7683C31.4046 61.1462 31.3259 61.5854 31.395 62.0139C31.6133 62.7833 32.4347 63.2199 33.1417 63.5527C40.6276 67.0565 48.2279 70.4563 56.2648 72.359C57.9116 72.8852 59.6815 72.8852 61.3282 72.359C63.1269 71.6104 64.2082 69.7909 65.1024 68.065C68.6904 60.8146 71.6203 53.2568 73.8567 45.4825Z" fill="black"/>
</g>
<g opacity="0.2">
<path d="M54.7156 21.7044C54.6428 20.0201 53.5927 18.1798 50.484 17.8887C45.7083 17.4291 40.9305 18.7429 37.0613 21.5797C32.8707 24.4404 29.8139 28.678 28.4213 33.5571C27.9431 35.2415 27.7143 37.1857 28.6813 38.6517C30.1264 40.8767 33.6303 40.7311 35.7721 39.2028C37.9139 37.6744 39.0992 35.1167 40.3676 32.7774C41.6361 30.438 43.2684 28.0467 45.7741 27.1733C47.7911 26.4663 50.1305 26.8406 52.0123 25.8113C52.783 25.4233 53.4383 24.8398 53.9127 24.1191C54.3871 23.3983 54.6639 22.5657 54.7156 21.7044Z" fill="white"/>
</g>
<path d="M72.0998 25.9989C72.0166 26.0612 71.0601 24.6576 69.1574 22.7758C68.0333 21.6857 66.8234 20.6878 65.5392 19.7918C63.9408 18.7179 62.2457 17.7955 60.4759 17.0366C58.6946 16.3046 56.8501 15.7373 54.9654 15.3418C53.4228 15.038 51.8581 14.8607 50.2867 14.8116C47.5938 14.7492 45.9407 15.0507 45.9199 14.9467C46.2928 14.8143 46.6803 14.727 47.074 14.6868C47.5307 14.6008 47.9927 14.5453 48.4568 14.5205C49.0538 14.4509 49.6545 14.4196 50.2555 14.4269C51.8559 14.4118 53.4541 14.551 55.0278 14.8428C58.8997 15.5601 62.5706 17.1065 65.7888 19.3759C67.0964 20.2998 68.3148 21.344 69.4277 22.495C69.9164 22.9733 70.2907 23.462 70.6442 23.8779C70.9507 24.2248 71.2321 24.5931 71.4864 24.9799C71.7363 25.2901 71.9426 25.6329 72.0998 25.9989Z" fill="#738096"/>
<path d="M22.3291 43.6222C22.4064 43.1508 22.5283 42.6878 22.693 42.2394C22.9529 41.366 23.3584 40.0976 23.8991 38.5484C25.228 34.4534 27.0653 30.5413 29.3679 26.9036C31.702 23.2537 34.9208 20.2531 38.7253 18.1805C39.8849 17.5763 41.1091 17.1054 42.3747 16.7769C42.8322 16.6431 43.3028 16.5595 43.7783 16.5273C42.1002 17.0723 40.4722 17.761 38.9125 18.586C35.2344 20.7129 32.1159 23.6853 29.815 27.2571C27.5508 30.856 25.6856 34.6909 24.2526 38.6939C23.7119 40.1599 23.2129 41.3764 22.8906 42.3329C22.7511 42.7819 22.5629 43.2143 22.3291 43.6222Z" fill="white"/>
<path d="M13.2835 59.2894C13.1899 59.1542 15.1446 57.7922 16.9849 55.5568C18.8252 53.3214 19.8337 51.1692 19.9792 51.242C19.5113 52.9843 18.6264 54.5865 17.4008 55.9103C16.318 57.3495 14.9062 58.5082 13.2835 59.2894Z" fill="white"/>
<path d="M35.7411 84.0879C35.7411 84.1607 35.1277 84.1815 34.1919 83.8904C32.9629 83.4988 31.8614 82.7849 31.002 81.8231C30.1425 80.8613 29.5566 79.6867 29.3053 78.4215C29.1626 77.9079 29.1626 77.3652 29.3053 76.8516C29.4722 77.3371 29.6042 77.834 29.7004 78.3383C30.0296 79.4992 30.618 80.5702 31.4213 81.4707C32.2245 82.3712 33.2216 83.0777 34.3375 83.5369C34.8178 83.687 35.2869 83.8711 35.7411 84.0879Z" fill="white"/>
<path d="M60.2157 8.5625C60.2781 8.70806 59.176 9.17593 58.2818 10.3508C57.8246 11.1015 57.4349 11.8913 57.1174 12.7109C57.023 12.238 57.0397 11.7496 57.166 11.2842C57.2922 10.8187 57.5247 10.3889 57.8452 10.0285C58.0938 9.612 58.439 9.2614 58.8516 9.00626C59.2641 8.75113 59.732 8.59893 60.2157 8.5625Z" fill="white"/>
</svg>
